 <!DOCTYPE svg PUBLIC "-//W3C//DTD SVG 1.1//EN" "http://www.w3.org/Graphics/SVG/1.1/DTD/svg11.dtd">
<svg id="ad673f11-0222-45ea-bf3c-a9fab15f2b66" data-name="Layer 1" xmlns="http://www.w3.org/2000/svg" xmlns:xlink="http://www.w3.org/1999/xlink" width="865.76" height="682.89" viewBox="0 0 865.76 682.89">
<defs>
<clipPath id="a10c4b5e-cbf1-42be-b6d6-8288bdaa22a7">
<path id="f7af880b-9364-4db2-816e-0b0826ce39e2" data-name="SVGID" d="M136.34-548.69c60.2-64.46,144.22-107.33,235.2-110.08,129.57-3.93,196.32,98.16,292.52,145.28s163,88.34,174.73,180.62,2,178.65-78.53,221.84-129.57-29.45-233.62-25.52S359.76-14.83,229.2-50.17C143.31-73.43,79.63-158.68,55.67-240.7,22.89-353,60.88-467.85,136.34-548.69Z" fill="none"/>
</clipPath>
<clipPath id="f6dbf43b-79f2-4896-9836-14cb9a8cce6d">
<path id="b16fbef1-c3f1-4d34-8b4b-ba91d74efcfc" data-name="SVGID" d="M750.72,137c-62.31-66.72-149.3-111.11-243.48-114C373.1,19,304,124.69,204.42,173.46s-168.69,91.46-180.88,187-2,185,81.29,229.66S239,559.61,346.68,563.68s172.75,126,307.91,89.42C743.5,629,809.43,540.77,834.23,455.86,868.17,339.61,828.84,220.72,750.72,137Z" fill="none"/>
</clipPath>
<style xmlns="http://www.w3.org/1999/xhtml">*, ::after, ::before { box-sizing: border-box; }
img, svg { vertical-align: middle; }
</style>
<style xmlns="http://www.w3.org/1999/xhtml">*, body, html { }
img, svg { max-width: 100%; }
</style>
</defs>
<g clip-path="url(#a10c4b5e-cbf1-42be-b6d6-8288bdaa22a7)">
<g id="b55bf6cc-61c6-4be6-8af6-d12a46afd91f" data-name="freepik--Confetti--inject-2">
<polygon points="313.31 4.71 301.65 16.48 311.54 20.25 313.31 4.71" fill="#dedede"/>
<polygon points="410.27 10.06 399.12 22.32 409.15 25.66 410.27 10.06" fill="#dedede"/>
<polygon points="371.25 -8.24 356.77 0.66 361.21 9.6 375.71 5.12 371.25 -8.24" fill="#2f2e41" data-secondary="true"/>
<polygon points="410.51 12.82 397.88 23.57 407.42 28.16 410.51 12.82" fill="#dedede"/>
<polygon points="222.19 0.92 234.63 1.48 235.19 -10.96 222.25 -9.36 222.19 0.92" fill="#b5b5b5"/>
<polygon points="574.47 74 581.99 59.23 571.43 58.65 574.47 74" fill="#dedede"/>
<polygon points="644.78 104.5 654.7 91.22 644.38 88.85 644.78 104.5" fill="#dedede"/>
<polygon points="624.02 40.45 635.99 37.03 632.6 25.06 620.83 30.67 624.02 40.45" fill="#b5b5b5"/>
<polygon points="431.11 60.76 415.59 67.76 418.87 77.16 433.81 74.58 431.11 60.76" fill="#0071f2" data-primary="true"/>
<polygon points="686.02 42.84 673.58 43.47 674.23 55.93 686.95 53.08 686.02 42.84" fill="#b5b5b5"/>
<polygon points="209.84 67.31 218.91 53.43 208.46 51.73 209.84 67.31" fill="#dedede"/>
<polygon points="98.47 47.76 87.33 60.02 97.37 63.37 98.47 47.76" fill="#dedede"/>
<polygon points="59.46 29.46 44.97 38.38 49.43 47.29 63.92 42.84 59.46 29.46" fill="#0071f2" data-primary="true"/>
<polygon points="98.71 50.52 86.1 61.27 95.61 65.85 98.71 50.52" fill="#dedede"/>
<polygon points="129.77 31.48 137.28 16.7 126.73 16.12 129.77 31.48" fill="#dedede"/>
<polygon points="258.19 91.37 270.19 87.98 266.77 75.98 255 81.6 258.19 91.37" fill="#b5b5b5"/>
<polygon points="477.31 47.2 468.39 61.17 478.84 62.77 477.31 47.2" fill="#dedede"/>
</g>
</g>
<path id="a09bf10e-f1ca-4b0d-92d9-b7ea0d0bba32" data-name="SVGID" d="M750.72,137c-62.31-66.72-149.3-111.11-243.48-114C373.1,19,304,124.69,204.42,173.46s-168.69,91.46-180.88,187-2,185,81.29,229.66S239,559.61,346.68,563.68s172.75,126,307.91,89.42C743.5,629,809.43,540.77,834.23,455.86,868.17,339.61,828.84,220.72,750.72,137Z" fill="#0071f2" data-primary="true"/>
<path id="a619096e-0c5e-4475-bca6-b2a2f0a2c3b4" data-name="SVGID" d="M750.72,137c-62.31-66.72-149.3-111.11-243.48-114C373.1,19,304,124.69,204.42,173.46s-168.69,91.46-180.88,187-2,185,81.29,229.66S239,559.61,346.68,563.68s172.75,126,307.91,89.42C743.5,629,809.43,540.77,834.23,455.86,868.17,339.61,828.84,220.72,750.72,137Z" fill="#fff" opacity="0.7"/>
<g clip-path="url(#f6dbf43b-79f2-4896-9836-14cb9a8cce6d)">
<g opacity="0.2">
<path d="M241.56,427.1a5.53,5.53,0,0,0,0,5,5.14,5.14,0,0,0,9.56-1,5.49,5.49,0,0,0-1-4.91c-2.08-2.48-4.64-2.21-4.42-2.65C245.68,424,243.11,424.27,241.56,427.1Z" fill="none"/>
<path d="M429.21,295.87a5.47,5.47,0,0,0,0,5,5.24,5.24,0,0,0,5.09,2.79,5.4,5.4,0,0,0,4.42-3.72,6.56,6.56,0,0,0,0-1.77h0a5.24,5.24,0,0,0-1.15-3.14c-2-2.47-4.64-2.21-4.42-2.65C433.32,292.77,430.72,293,429.21,295.87Z" fill="none"/>
<path d="M208.76,607.76a5.47,5.47,0,0,0,0,5,5.17,5.17,0,0,0,9.55-.93,5.42,5.42,0,0,0-1-5c-2.07-2.47-4.42-2.21-4.42-2.65C212.87,604.84,210.3,605.11,208.76,607.76Z" fill="none"/>
<path d="M657.8,304.76a5.59,5.59,0,0,0,0,5,5.18,5.18,0,0,0,9.6-.93,5.45,5.45,0,0,0-1-4.95c-2-2.48-4.42-2.21-4.42-2.66C662.22,301.66,659.53,301.93,657.8,304.76Z" fill="none"/>
<path d="M268.09,138.77a5.47,5.47,0,0,0,0,5,5.18,5.18,0,0,0,9.6-.92,5.54,5.54,0,0,0-1-5,6.66,6.66,0,0,0-3.54-2.25v.84a14.87,14.87,0,0,1,0,3.4,15.24,15.24,0,0,1-.57-3.36V135.5c-.27,0-.44,0-.4-.22S269.64,135.94,268.09,138.77Z" fill="none"/>
<path d="M675.49,233.92a5.49,5.49,0,0,0,0,5.05A5.18,5.18,0,0,0,685,238a5.47,5.47,0,0,0-1-5c-2.08-2.47-4.65-2.21-4.42-2.65C679.47,230.87,676.9,231.09,675.49,233.92Z" fill="none"/>
<path d="M416.92,323.59a5.41,5.41,0,0,0,0,5,5.18,5.18,0,0,0,9.6-.93,5.58,5.58,0,0,0-.58-4.42h-1.59l1.5-.31a1.86,1.86,0,0,0-.22-.35c-2-2.48-4.64-2.21-4.42-2.65C421,320.36,418.47,320.76,416.92,323.59Z" fill="none"/>
<path d="M368.68,410.83a5.47,5.47,0,0,0,0,5,5.13,5.13,0,0,0,9.55-.93,3,3,0,0,0,0-1.11h0a5.41,5.41,0,0,0-1.2-3.62c-2.07-2.48-4.64-2.21-4.42-2.65C372.79,407.78,370.41,408,368.68,410.83Z" fill="none"/>
<path d="M185.41,234.46l312.47-30.65,46.29,48.33.27.31h.44l94.71-9.81L665,239.89l6.54-.79h1.24a4.79,4.79,0,0,0,.36,1.15,7.51,7.51,0,0,0,14.14-1.37,7.28,7.28,0,0,0-2-6.86,6.49,6.49,0,0,0-4.42-1.81c-1.1,0-1.63.31-1.63.44a6.47,6.47,0,0,1,4.42,2.66,5.42,5.42,0,0,1,1,4.95,5.17,5.17,0,0,1-9.55.93,5.47,5.47,0,0,1,0-5c1.55-2.83,4.11-3.05,4-3.5s-.57-.31-1.68,0a6.39,6.39,0,0,0-3.89,2.66,7.18,7.18,0,0,0-1,5.79h-1.24l-6.54.53-25.47,2.3-94.35,8.84-46.12-48.64-.35-.39h-.49l-312.77,30.2L67.09,243.48c-.31.88-.57,1.76-.88,2.65Z" fill="#fff"/>
<path d="M675.8,160.93l49.34,50.36.36.35H726l60.26-6.23c0-.45-.4-.89-.57-1.37l-59.34,5.35-49.17-50.63-.44-.44h-.62l-39.3,3.8L491.38,176.67l-44.22,4.68-11.93,1.42a24.2,24.2,0,0,0-4.16.66,24.54,24.54,0,0,0,4.2,0l12-.93,44.21-3.84,145.56-13.75Z" fill="#fff"/>
<path d="M360.33,335.09l30.59,12.73h.22l51.51-4.73,13.67-1.37h.92a3.82,3.82,0,1,0,0-.4h-.93l-13.7.93-51.34,4-30.55-13h-.49l-219.44,21-76.88,7.52-15-7.3v2.79l14.28,7h.71l77.2-7.47Z" fill="#fff"/>
<path d="M388.45,315.5l-28.88-8.84H359l-18.48,1.9c-1-11.85-2-23.17-2.92-33.87v-1.15h-1.15l-84.67,9.37-23.65,2.79-2.61.35a3.81,3.81,0,0,0-4.07-3.14,3.86,3.86,0,0,0-3.45,4.21,3.81,3.81,0,0,0,7.61-.49l2.61-.22L252,284.24l83.48-8.09q1.23,16.14,2.69,34v1.23h1.29L359,309.4l28.87,8.84h.53l35.94-3.49,162-16.14,30,16.49h.44l30.42-3.31,8-1h.4a7.51,7.51,0,0,0,14.19-1.41,7.2,7.2,0,0,0-2-6.81,6.43,6.43,0,0,0-4.42-1.86c-1.11,0-1.64.31-1.64.49a6.68,6.68,0,0,1,4.42,2.65,5.41,5.41,0,0,1,1,4.95,5.17,5.17,0,0,1-9.59.93,5.53,5.53,0,0,1,0-5c1.54-2.83,4.11-3.09,4-3.49s-.62-.35-1.68,0a6.32,6.32,0,0,0-3.9,2.61,7.27,7.27,0,0,0-.79,6.63h-.31l-8.09.58-30.25,2.6-29.53-16.93h-.58L424.13,312.14Z" fill="#fff"/>
<path d="M218.71,605.82a6.36,6.36,0,0,0-4.43-1.86c-1.1,0-1.63.31-1.63.48a6.67,6.67,0,0,1,4.42,2.66,5.42,5.42,0,0,1,1,4.95,5.17,5.17,0,0,1-9.55.93,5.47,5.47,0,0,1,0-5c1.55-2.83,4.11-3.1,4-3.5s-.62-.35-1.68,0a6.37,6.37,0,0,0-3.89,2.61,7.33,7.33,0,0,0-.62,7.12,7.51,7.51,0,0,0,7.56,4.42,7.6,7.6,0,0,0,6.59-5.79v-.26h1.15l5.7-.4,21.58-1.73,75.61-6.85h.66l.31-.62,21.75-46.11v-.71c-.66-7-1.37-14.15-2.07-21.4-3.1-31.17-6-60.49-8.49-85.56v-.57l-.49-.27L300,424.58h-.31l-35.37,3.85-9.51,1.15H253.5a7,7,0,0,0-2.08-4.43A6.4,6.4,0,0,0,247,423.3c-1.1,0-1.63.31-1.63.48a6.67,6.67,0,0,1,4.42,2.66,5.47,5.47,0,0,1,1,4.9,5.13,5.13,0,0,1-9.55,1,5.47,5.47,0,0,1,0-5c1.55-2.83,4.11-3.1,4-3.5s-.62-.35-1.68,0a6.13,6.13,0,0,0-3.89,2.61,7.11,7.11,0,0,0-.66,7.08,7.52,7.52,0,0,0,14.19-1.37,6.6,6.6,0,0,0,0-2.08h1.24l9.59-.71,35.11-3c10.12,6.81,22.11,14.86,35.37,23.66,2.39,25,5.13,54.12,8.09,85.07.71,7.12,1.37,14.15,2.08,21l-21.14,45.24-74.85,7.78-21.49,2.43-5.66.75h-1.1A7.19,7.19,0,0,0,218.71,605.82Z" fill="#fff"/>
<path d="M622.43,495a3.81,3.81,0,0,0,3.41-3.94h0l11.18-.84,41.39-3.58h.48l43.33-35.77,87.59-8.4a12.3,12.3,0,0,1,.62-2.74l-88.83,8.84h-.35l-.31.27-43,36.26-41,4.42-11.18,1.37h0a3.81,3.81,0,1,0-7.56,1h0A3.79,3.79,0,0,0,622.43,495Z" fill="#fff"/>
<path d="M422.62,743.46a32.23,32.23,0,0,0-.31-5.09c-.44-6-1.1-13.84-1.81-23.39-1.68-19.67-4.2-46.91-7.12-76.93-.93-9.38-1.81-18.53-2.69-27.19v-.53l-.4-.31-44.22-35.95c-.84-7.16-1.54-13.26-2.07-17.69-.4-3-.71-5-.89-5.88a3,3,0,0,0,1.46,0,3.84,3.84,0,1,0-4.2-3.45h0a3.75,3.75,0,0,0,2.48,3.19c0,.84,0,2.87.26,6.06.35,4.42.8,10.65,1.37,18v.31l.27.27,43.68,36.48c.8,8.53,1.64,17.46,2.52,26.53,2.92,30,5.71,57.21,7.87,76.89,1.11,9.46,2,17.28,2.7,23.25l.66,5.09a3.83,3.83,0,0,0-2.3,1.32h6.06A3.88,3.88,0,0,0,422.62,743.46Z" fill="#fff"/>
<path d="M243.86,175.91a3.8,3.8,0,0,0,4.1,3.49,1.86,1.86,0,0,0,.33,0,3.85,3.85,0,1,0-4.43-3.45Z" fill="#fff"/>
<path d="M549.34,525.3l7.65-.8h1.33a4.82,4.82,0,0,0,0,.76,3.79,3.79,0,0,0,4.12,3.45h.08A3.9,3.9,0,0,0,566,524.5a3.8,3.8,0,0,0-7.56-.35H557l-7.69.35-28.7,1.82-96.16,6.85q-2-16.09-4.07-33.16c-.4-3.14-.8-6.28-1.15-9.2l34.49-37.89.4-.4V452c-1.29-12.34-2.48-24-3.54-34.53V417l-.36-.31-11.49-9.37-.35-.26H438l-43.69,4.68-11.94,1.46h-1.45a6.92,6.92,0,0,0-2.13-4.42,6.37,6.37,0,0,0-4.42-1.86c-1.1,0-1.63.31-1.63.49a6.68,6.68,0,0,1,4.42,2.65,5.48,5.48,0,0,1,1.19,3.63h0a3.38,3.38,0,0,1,0,1.1,5.13,5.13,0,0,1-9.55.93,5.47,5.47,0,0,1,0-5c1.54-2.78,4.11-3,4-3.45s-.58-.35-1.68,0a6.18,6.18,0,0,0-3.9,2.61,7.25,7.25,0,0,0-.61,7.08,7.46,7.46,0,0,0,14.14-1.38,7.83,7.83,0,0,0,0-1.81h1.46l12-.88,43.37-3.8,10.74,8.84c.93,10.26,2,21.58,3.1,33.56l-34.66,37.85-.4.44v.62c.35,3.09.79,6.41,1.19,9.77l4.42,34.4v1.28h1.24l97.27-7.87Z" fill="#fff"/>
<path d="M491.86,513.1c-2.07-25.12-4.42-51.56-6.49-78.4-.31-3.71-.62-7.38-.89-11.09v-.53l-.44-.36-37-31.88-.44-.35H446L217.25,412.86h-.53L77.79,506.11l.67,1.68,139.32-92.85L445.7,392.83l36.22,30.95c.26,3.5.57,7,.84,10.53,2.3,27.32,4.42,54.2,6.63,79.58v1.33h1.32l305.75-26.53.71-2Z" fill="#fff"/>
<path d="M486.38,371c.84,7.57,2.08,18.27,3.58,31.66V403l.31.22,65.09,50.45.35.27h.4l86.39-8.27L792,430.9l20.78-2.21.27-1.55L791.77,429,642.33,443.15l-85.87,8.44-65-49.25c-1.77-13.27-3.19-23.74-4.42-31.26-.49-3.45-.93-6.24-1.24-8.36a12,12,0,0,0-.58-2.83,15.39,15.39,0,0,0,0,2.88A54.61,54.61,0,0,1,486.38,371Z" fill="#fff"/>
<path d="M559.82,271.42h-.35l-.31.22-22.42,15.78-70.52,7.34L446,297.06l-4.86.67a6.82,6.82,0,0,0-2-4,6.34,6.34,0,0,0-4.43-1.85c-1.1,0-1.68.31-1.63.48a6.59,6.59,0,0,1,4.42,2.66,5.19,5.19,0,0,1,1.15,3.13h0a5.84,5.84,0,0,1,0,1.77,5.4,5.4,0,0,1-4.42,3.72,5.25,5.25,0,0,1-5.09-2.79,5.47,5.47,0,0,1,0-5c1.51-2.83,4.12-3.09,4-3.49s-.62-.36-1.72,0a6.41,6.41,0,0,0-3.89,2.61,7.33,7.33,0,0,0-.62,7.12A7.52,7.52,0,0,0,441,300.6a6.4,6.4,0,0,0,0-2.39l4.86-.26,20.25-1.64,70.75-6.41h.61L560,274.25l37.49-2.92,115.93-9.55,35.11-3.23,9.11-.93a3.76,3.76,0,1,0,0-.57l-9.11.48-35.37,2.35-115.94,8.84Z" fill="#fff"/>
<path d="M368.24,656.84c-1-10.7-2.08-21.05-3.05-31v-.44l-.53-.36-24-14.94-.35-.27h-.4l-55.14,5.88-15.61,1.86-1.81.22a3.8,3.8,0,0,0-4.11-3.14,3.85,3.85,0,0,0,.75,7.65,3.81,3.81,0,0,0,3.41-3.89h1.81l15.7-1.19,54.82-4.87,23,14.59c1,9.73,2,19.9,2.92,30.34l8.4,83.08,2,.31C373.9,717.5,371.2,688.45,368.24,656.84Z" fill="#fff"/>
<path d="M405.38,721.22l.35-.45v-.53c-4-41.16-7.87-79.89-11.18-113.81V606l-.4-.31-33.74-27.55c-3-29.05-5.48-52.79-7.2-69.55-.89-8.09-1.64-14.5-2.13-19.1-.26-2-.44-3.58-.61-4.86h.79a3.85,3.85,0,1,0-4.2-3.46h0a3.77,3.77,0,0,0,3.1,3.32,30.93,30.93,0,0,0,.31,4.95c.39,4.42.92,11.05,1.59,19.19,1.55,16.84,3.71,40.76,6.36,70v.4l.31.31,33.52,27.72c3.23,33.7,6.9,72,10.79,112.8l-3.72,4.42L384.87,742l3.13.36c4.43-5.22,8.85-10.7,13.27-16.27Z" fill="#fff"/>
<path d="M758.21,551.17l-192.15,18.3-42.14,4.11H523l-.22.89-13.26,49.78v.45c4.42,42.93,8.18,80.73,11.18,110.53l1.64-.4c-2.79-29.66-6.28-67.33-10.3-110.09,4.42-15.48,8.84-31.79,13.26-48.64l41.21-4,192.11-19,9.16-1,1.06-1.86Z" fill="#fff"/>
<path d="M516.32,396.68v.62l.53.35,13.61,9.69,38.16,27,.4.27h.35l98-10,28.52-3.14,6.5-.84a3.81,3.81,0,1,0,3.43-4.42h0a3.85,3.85,0,0,0-3.45,3.94l-6.54.44L667.22,423l-97.63,8.84L531.88,405l-13.27-9.28c-3-29.63-5.7-57.13-8.09-80.83v-1.1h-1.1l-61.9,6.5-17.29,2-2.34.31a6.43,6.43,0,0,0-1.11-1.33,6.19,6.19,0,0,0-4.42-1.81c-1.11,0-1.68.31-1.64.44a6.35,6.35,0,0,1,4.42,2.65,1.69,1.69,0,0,1,.23.36l-1.51.3h1.59a5.52,5.52,0,0,1,.58,4.43,5.17,5.17,0,0,1-9.6.92,5.47,5.47,0,0,1,0-5c1.55-2.83,4.12-3.05,4-3.49s-.62-.35-1.72,0a6.65,6.65,0,0,0-3.89,2.61,7.33,7.33,0,0,0-.62,7.12,7.52,7.52,0,0,0,14.15-1.37,7,7,0,0,0-.67-5h2.17L447.16,322l61-5.48C510.88,340,513.44,367.32,516.32,396.68Z" fill="#fff"/>
<path d="M810.87,343.62l-36.43-30-.44-.35h-.53l-3.23.35L612.79,329.21,587.68,315h-.62l-32.5,3.28h-.4l-.22.31-32.63,40.14h0V359c1.15,10.57,2.08,18.75,2.7,24.5.31,2.61.57,4.69.75,6.28a11.3,11.3,0,0,0,.35,2.08,10.83,10.83,0,0,0,0-2.13c0-1.59-.26-3.67-.44-6.32-.48-5.66-1.19-13.79-2.08-24.27l32.68-39.22,31.83-3,25,14.37h.71l157.84-15.13,2.66-.26,36.47,30,.4.31h.58l7.82-.8v-2.56Z" fill="#fff"/>
<path d="M309.66,19.92l.44.31h0l38.51,31.66c3.76,37.54,7.16,71.19,9.86,98.16v.53l.49.27,35.76,17.68h.36l22.11-2.43,5.66-.75a9.9,9.9,0,0,0,1.94-.36,7.87,7.87,0,0,0-1.94,0l-5.75.4-21.84,1.81-34.85-17.68c-2.56-27-5.7-60.71-9.24-98.25v-.62l-.44-.35L312.18,18.51c-.8-7.69-1.55-15.3-2.3-22.81l-2.48.88c.71,7.47,1.42,15,2.17,22.73Z" fill="#fff"/>
<path d="M373.37,48.49l-.31.4v.48c2.79,26.53,5.13,49.17,6.85,65.62.89,7.78,1.64,14.06,2.17,18.74a44.44,44.44,0,0,0,1.06,6.68,43.12,43.12,0,0,0-.26-6.72c-.36-4.73-.84-11-1.46-18.84C380,98.49,377.92,76,375.54,49.64L411.39,6.26l19.19-23.43.36-.4v-.53l-.67-6.54h-2.38l.57,6.23-18.92,23Z" fill="#fff"/>
<path d="M417.45,46.9a4,4,0,0,0,.62-2.35,3.85,3.85,0,0,0-4.2-3.45,3.81,3.81,0,0,0-3.45,4.13v0a3.71,3.71,0,0,0,6.37,2.43l3.93,3.54C424.92,55,430.94,60.07,438,66c.53,5.62,1.1,11.63,1.68,17.69,1.32,13.92,2.69,26.53,3.84,35.68a80.13,80.13,0,0,0,2.39,14.68,83.87,83.87,0,0,0-.53-14.86c-.62-9.2-1.72-21.84-3.05-35.77-.66-6.45-1.33-12.64-1.9-18.35v-.53l-.4-.31c-7.38-6-13.71-11-18.26-14.41Z" fill="#fff"/>
<path d="M462.77,146.25v.44l.27.31,20,20.82.39.45h.62l117-11.5,60.35-5.88h.58l.35-.44,45.76-60-1.72-1.82-45.81,60-59.78,5.8L484.53,165.61l-19.37-20C458.26,76.7,452.38,18,448.22-23.67v-.75h-1.5v.93C450.7,18.24,456.23,77.18,462.77,146.25Z" fill="#fff"/>
<path d="M511.89,187.72,484.13,190l-91.62,8.67c-.35-4-.75-8.14-1.19-12.34v-1.68l-.62-.31-35.77-20.25-.35-.22h-.4l-73.49,7.65L259.43,174l-5.66.75a8.15,8.15,0,0,0-2,.4,6,6,0,0,0,2,0l5.71-.35,21.31-1.68,73.22-6.68,34.75,19.81v.31c.49,4.64.93,9.28,1.37,13.66v1.33h1.28l92.85-9.47L512,189l7.48-1a9.82,9.82,0,0,0,2.56-.54,10.36,10.36,0,0,0-2.61,0Z" fill="#fff"/>
<path d="M175.86,74.49l24.45,24.4.44.4h.58l66.32-6.76c1.55,14.23,2.83,26,3.76,34.44.4,3.18.75,5.88,1,8.09,0,0-.31,0-.31.27s0,0,.4.22v1.06a14.77,14.77,0,0,0,.57,3.36,15,15,0,0,0,0-3.41v-.84a6.77,6.77,0,0,1,3.54,2.26,5.51,5.51,0,0,1,1,5,5.17,5.17,0,0,1-9.59.93,5.41,5.41,0,0,1,0-5c1.55-2.83,4.11-3.1,4-3.49s-.62-.36-1.73,0a6.05,6.05,0,0,0-3.84,2.6,7.21,7.21,0,0,0-.67,7.12,7.52,7.52,0,0,0,14.15-1.41,7.1,7.1,0,0,0-2-6.81,6.32,6.32,0,0,0-4.42-1.86,2.43,2.43,0,0,0-.66,0c0-2.25-.35-4.91-.58-8.09-.75-8.84-1.76-20.78-3.05-35.37V90.45h-1L201.9,96.64,178,72.72Z" fill="#fff"/>
</g>
<path d="M358.28,613.93s-24.32,6.72-57.81,3.34l12.59-78.36,19.67,1.54Z" fill="#e6e7e8"/>
<ellipse cx="347.64" cy="545.62" rx="6.04" ry="7.48" opacity="0.1"/>
<ellipse cx="620.6" cy="233.85" rx="153.52" ry="150.47" fill="#0071f2" opacity="0.28" data-primary="true"/>
<rect x="512.63" y="183.73" width="73.98" height="132.48" rx="4.71" fill="#0071f2" data-primary="true"/>
<rect x="512.63" y="183.73" width="73.98" height="132.48" rx="4.71" opacity="0.2"/>
<rect x="509.94" y="183.73" width="73.98" height="132.48" rx="4.71" fill="#0071f2" data-primary="true"/>
<rect x="515.32" y="192.13" width="63.22" height="113.99" fill="#fff" opacity="0.72"/>
<rect x="533.64" y="186.75" width="26.56" height="3.03" rx="1.51" fill="#fff"/>
<ellipse cx="545.58" cy="311.5" rx="6.05" ry="3.03" fill="#fff"/>
<rect x="521.37" y="274.18" width="51.11" height="20.18" rx="3.37" fill="#fff"/>
<path d="M569.11,294.85H524.74a3.87,3.87,0,0,1-3.87-3.87V277.55a3.87,3.87,0,0,1,3.87-3.87h44.37a3.87,3.87,0,0,1,3.87,3.87V291A3.87,3.87,0,0,1,569.11,294.85Zm-44.37-20.17a2.88,2.88,0,0,0-2.87,2.87V291a2.87,2.87,0,0,0,2.87,2.87h44.37A2.87,2.87,0,0,0,572,291V277.55a2.88,2.88,0,0,0-2.87-2.87Z" fill="#0071f2" data-primary="true"/>
<ellipse cx="549.29" cy="235.88" rx="23.31" ry="22.8" fill="#0071f2" data-primary="true"/>
<ellipse cx="549.16" cy="235.65" rx="17.76" ry="16.94" transform="translate(-11.4 28.57) rotate(-2.95)" fill="#fff" opacity="0.2" style="isolation:isolate"/>
<path d="M550.82,252.44a17.66,17.66,0,0,1-19.32-15.12,2.8,2.8,0,0,0,0,.5,17.76,17.76,0,0,0,35.34-3.38,2.63,2.63,0,0,0-.06-.49A17.48,17.48,0,0,1,550.82,252.44Z" fill="#fafafa"/>
<path d="M547.48,218.86A17.65,17.65,0,0,1,566.81,234a2.11,2.11,0,0,0,0-.5,17.75,17.75,0,0,0-35.33,3.39,4.36,4.36,0,0,0,.06.49A17.49,17.49,0,0,1,547.48,218.86Z" opacity="0.3" style="isolation:isolate"/>
<path d="M557,240.9a4.62,4.62,0,0,0-2.81-4.76,4.89,4.89,0,0,0-1.61-8.85l.08-3-2.8-.09-.07,2.75-1.59-.05.08-2.75-2.79-.09-.08,2.75-2.54-.08-1.78-.05-.07,2.73,1.77.05-.37,13.29-1.92,0-.08,2.74,2,.06h0l2.54.09-.09,3.19,2.79.09.09-3.2,1.59.05-.09,3.2,2.79.09.09-3.3C555.27,245.4,557,243.68,557,240.9Zm-10.66-11.28,3.78.12c2.1.07,3.24,1,3.22,2.71S552.1,235,550,234.91l-4.29-.14.14-5.17Zm4,13.41-4.57-.14-.32,0,.13-5.41,4.9.16c2.28.07,3.49.94,3.44,2.82s-1.29,2.68-3.57,2.61Z" fill="#fff"/>
<path d="M570.36,226.06l-.11-.15c-.07-.11-.16-.28-.28-.48l-.44-.77a8.42,8.42,0,0,0-.64-1l-.88-1.24c-.32-.46-.75-.88-1.16-1.39a15.58,15.58,0,0,0-1.46-1.47,7.57,7.57,0,0,0-.83-.77l-.94-.73a24.8,24.8,0,0,0-4.56-2.73l-1.37-.55-.69-.28-.73-.21c-.49-.14-1-.3-1.49-.42l-1.57-.3a15,15,0,0,0-1.62-.21,11.61,11.61,0,0,0-1.67-.1h-1.71l-1.73.16a24.46,24.46,0,0,0-7,2,25,25,0,0,0-6,4,24.59,24.59,0,0,0-4.25,5.23l-.76,1.37-.18.34-.15.36-.3.71a23.48,23.48,0,0,0-1,2.78c-.14.46-.21.93-.32,1.38s-.18.89-.24,1.34a23.93,23.93,0,0,0-.2,2.54,18.09,18.09,0,0,0,.07,2.33,15.89,15.89,0,0,0,.26,2.06c.14.63.21,1.23.37,1.76s.31,1,.43,1.46a10.56,10.56,0,0,0,.42,1.11c.13.32.25.6.34.83s.15.38.2.51a.48.48,0,0,1,.06.18l-.09-.17c-.06-.12-.13-.29-.22-.5l-.37-.81a9,9,0,0,1-.44-1.12l-.46-1.46c-.17-.55-.25-1.14-.4-1.77a14.31,14.31,0,0,1-.28-2.07,15.27,15.27,0,0,1-.09-2.34,22.37,22.37,0,0,1,.18-2.58,11.58,11.58,0,0,1,.23-1.31c.1-.45.16-.93.3-1.39a23,23,0,0,1,1-2.83l.3-.73.16-.36.18-.35c.25-.47.51-.94.76-1.42a23.43,23.43,0,0,1,17.44-11.28l1.75-.16h1.73a11.62,11.62,0,0,1,1.67.12,15,15,0,0,1,1.64.2l1.58.32c.51.12,1,.29,1.5.43l.74.22c.24.09.47.19.71.27l1.36.56a24.62,24.62,0,0,1,4.59,2.78l.95.75c.31.24.56.56.84.78a14.68,14.68,0,0,1,1.44,1.51c.41.5.84.94,1.15,1.4l.87,1.27a8.39,8.39,0,0,1,.62,1c.16.31.31.56.42.79l.25.49Z" fill="#fafafa"/>
<ellipse cx="560.99" cy="160.43" rx="16.45" ry="16.08" fill="#0071f2" data-primary="true"/>
<ellipse cx="560.9" cy="160.27" rx="12.53" ry="11.95" transform="translate(-7.51 29.08) rotate(-2.95)" fill="#fff" opacity="0.2" style="isolation:isolate"/>
<path d="M562.08,172.12a12.47,12.47,0,0,1-13.64-10.67,2,2,0,0,0,0,.35,12.53,12.53,0,0,0,24.94-2.38c0-.12,0-.23,0-.35A12.33,12.33,0,0,1,562.08,172.12Z" fill="#fafafa"/>
<path d="M559.72,148.42a12.47,12.47,0,0,1,13.64,10.67,1.38,1.38,0,0,0,0-.35,12.52,12.52,0,0,0-24.93,2.38,2,2,0,0,0,0,.35A12.35,12.35,0,0,1,559.72,148.42Z" opacity="0.3" style="isolation:isolate"/>
<path d="M566.45,164a3.26,3.26,0,0,0-2-3.36,3.25,3.25,0,0,0,1.55-2.86,3.21,3.21,0,0,0-2.69-3.38l0-2.09-2-.06,0,1.94-1.12,0,.06-1.94-2-.06-.06,1.94-1.79-.06-1.25,0-.06,1.93,1.25,0-.26,9.37-1.36,0,0,1.92,1.38,0h0l1.79.06-.06,2.26,2,.06.06-2.26,1.12,0-.06,2.25,2,.07.07-2.33C565.21,167.16,566.4,165.94,566.45,164Zm-7.52-8,2.66.08c1.49.05,2.29.69,2.27,1.91s-.88,1.79-2.37,1.74l-3-.1.1-3.64Zm2.83,9.46-3.22-.1h-.23l.09-3.82,3.46.11c1.61.05,2.47.67,2.43,2s-.91,1.9-2.52,1.84Z" fill="#fff"/>
<path d="M575.86,153.51l-.07-.11c0-.08-.12-.19-.2-.34l-.31-.54a6.89,6.89,0,0,0-.46-.73l-.62-.87c-.22-.32-.52-.63-.81-1a11.24,11.24,0,0,0-1-1,5,5,0,0,0-.59-.54l-.66-.52a16.91,16.91,0,0,0-3.22-1.92l-1-.4-.49-.19-.51-.15c-.35-.1-.7-.21-1-.3l-1.11-.21a8.87,8.87,0,0,0-1.14-.14,7.8,7.8,0,0,0-1.18-.08h-1.21l-1.22.11a16.8,16.8,0,0,0-9.16,4.21,17.45,17.45,0,0,0-3,3.68l-.53,1-.13.25-.11.25-.21.5a15.14,15.14,0,0,0-.68,2c-.1.32-.15.65-.22,1a7.55,7.55,0,0,0-.17,1,13.36,13.36,0,0,0-.14,1.79,11.2,11.2,0,0,0,0,1.64,10.23,10.23,0,0,0,.19,1.46c.09.44.15.87.26,1.24l.3,1a5.24,5.24,0,0,0,.3.78c.09.23.17.42.23.59l.15.36a.56.56,0,0,1,0,.12l-.06-.12c0-.08-.1-.2-.16-.35l-.26-.57a5.88,5.88,0,0,1-.31-.79l-.33-1c-.12-.39-.17-.8-.28-1.25a11.92,11.92,0,0,1-.2-1.46,11.38,11.38,0,0,1-.06-1.65,15.75,15.75,0,0,1,.13-1.82,7.08,7.08,0,0,1,.16-.92c.07-.32.11-.66.21-1a17.49,17.49,0,0,1,.69-2q.1-.24.21-.51l.11-.25.13-.25c.17-.33.35-.66.54-1a17.22,17.22,0,0,1,3-3.74,17.94,17.94,0,0,1,4.32-2.84,17.5,17.5,0,0,1,5-1.38l1.24-.11h1.22a9.48,9.48,0,0,1,1.18.08,11.31,11.31,0,0,1,1.15.15l1.11.22c.37.09.72.2,1.07.3l.52.15.5.2,1,.39a17.51,17.51,0,0,1,3.24,2l.67.53c.22.17.39.39.59.54a11.49,11.49,0,0,1,1,1.07c.29.35.59.66.81,1l.61.89a6.87,6.87,0,0,1,.44.74c.11.22.21.39.29.56l.18.34Z" fill="#fafafa"/>
<ellipse cx="607.53" cy="130.72" rx="16.08" ry="16.45" transform="translate(101.21 491.03) rotate(-47.58)" fill="#0071f2" data-primary="true"/>
<ellipse cx="607.58" cy="130.55" rx="11.95" ry="12.53" transform="translate(120.57 516.58) rotate(-50.53)" fill="#fff" opacity="0.2" style="isolation:isolate"/>
<path d="M600.45,140.08A12.46,12.46,0,0,1,597.58,123a1.86,1.86,0,0,0-.22.27,12.53,12.53,0,0,0,20,15.06,1.42,1.42,0,0,0,.2-.28A12.33,12.33,0,0,1,600.45,140.08Z" fill="#fafafa"/>
<path d="M614.7,121a12.46,12.46,0,0,1,2.87,17.07,1.44,1.44,0,0,0,.22-.27,12.53,12.53,0,0,0-20-15.06,2.43,2.43,0,0,0-.2.28A12.35,12.35,0,0,1,614.7,121Z" opacity="0.3" style="isolation:isolate"/>
<path d="M609.17,137a3.23,3.23,0,0,0,.8-3.81,3.26,3.26,0,0,0,3.08-1.07,3.21,3.21,0,0,0,.29-4.31l1.46-1.51L613.38,125l-1.35,1.4-.8-.79,1.35-1.39-1.41-1.38-1.35,1.4-1.29-1.25-.89-.88-1.34,1.39.9.87-6.52,6.75-1-.94-1.34,1.39,1,1h0l1.28,1.26-1.56,1.62,1.41,1.38,1.57-1.63.8.78-1.57,1.63,1.41,1.38,1.62-1.68C606.11,138.53,607.81,138.44,609.17,137Zm-.18-11,1.91,1.86c1.06,1,1.22,2,.39,2.94s-1.86.72-2.93-.31l-2.16-2.11,2.53-2.63ZM604.7,135l-2.32-2.25-.15-.16,2.64-2.76,2.48,2.42c1.15,1.12,1.37,2.15.45,3.1s-1.95.79-3.11-.33Z" fill="#fff"/>
<path d="M623.18,135.64a1.11,1.11,0,0,0,0-.13c0-.09,0-.22.08-.38l.14-.61a6.17,6.17,0,0,0,.15-.84l.14-1.07c0-.39,0-.82,0-1.27a10.13,10.13,0,0,0,0-1.46,7.2,7.2,0,0,0-.07-.8l-.15-.83a16.66,16.66,0,0,0-1.07-3.59l-.45-.94c-.07-.16-.15-.32-.23-.47l-.28-.46c-.19-.31-.37-.63-.58-.93l-.67-.91a10.29,10.29,0,0,0-.74-.87,9.43,9.43,0,0,0-.82-.85l-.89-.82-1-.74a17.27,17.27,0,0,0-4.57-2.27,17.87,17.87,0,0,0-5-.81,17.43,17.43,0,0,0-4.7.71l-1.05.35-.26.09-.24.12-.5.23a14.64,14.64,0,0,0-1.83,1c-.29.17-.55.38-.82.57a8.47,8.47,0,0,0-.76.58q-.69.59-1.32,1.23a12.81,12.81,0,0,0-1.07,1.25,9.1,9.1,0,0,0-.84,1.19c-.23.39-.48.75-.65,1.1s-.32.67-.47,1a6.67,6.67,0,0,0-.31.78c-.08.23-.16.43-.22.59l-.13.36-.06.12a.93.93,0,0,1,0-.13c0-.09.06-.21.11-.36l.2-.6a5.36,5.36,0,0,1,.3-.79l.46-1c.17-.37.41-.71.63-1.11a13.16,13.16,0,0,1,.84-1.22,14.24,14.24,0,0,1,1.07-1.26,15.6,15.6,0,0,1,1.32-1.25,8.2,8.2,0,0,1,.74-.58c.27-.19.53-.4.82-.58a15.23,15.23,0,0,1,1.86-1l.5-.24.25-.11.26-.1,1.08-.38a17.35,17.35,0,0,1,4.75-.72,17.66,17.66,0,0,1,5.1.82,17.33,17.33,0,0,1,4.6,2.33l1,.75.9.83a8.14,8.14,0,0,1,.81.85,10.8,10.8,0,0,1,.76.89l.67.91c.21.31.39.64.58.94l.28.47c.08.16.16.32.23.48l.45.94a17.18,17.18,0,0,1,1.07,3.63l.14.85c0,.27,0,.55.06.8a10.31,10.31,0,0,1,0,1.47c0,.46,0,.89-.07,1.28l-.15,1.07a6.3,6.3,0,0,1-.18.84c-.06.24-.1.44-.16.61l-.1.38A.5.5,0,0,1,623.18,135.64Z" fill="#fafafa"/>
<ellipse cx="669.77" cy="144.69" rx="16.45" ry="16.08" transform="translate(-5.83 30.29) rotate(-2.58)" fill="#0071f2" data-primary="true"/>
<ellipse cx="669.86" cy="144.84" rx="12.53" ry="11.95" transform="translate(-10.84 65.22) rotate(-5.53)" fill="#fff" opacity="0.2" style="isolation:isolate"/>
<path d="M668.16,133.06a12.47,12.47,0,0,1,14.1,10,1.32,1.32,0,0,0,0-.34,12.53,12.53,0,0,0-24.8,3.5,1.43,1.43,0,0,0,.06.35A12.33,12.33,0,0,1,668.16,133.06Z" fill="#fafafa"/>
<path d="M671.58,156.63a12.47,12.47,0,0,1-14.11-10,2.11,2.11,0,0,0,0,.35,12.53,12.53,0,0,0,24.8-3.51,3.43,3.43,0,0,0-.06-.34A12.35,12.35,0,0,1,671.58,156.63Z" opacity="0.3" style="isolation:isolate"/>
<path d="M664.16,141.39a3.27,3.27,0,0,0,2.13,3.27,3.44,3.44,0,0,0,1.42,6.18l0,2.09,2,0,0-1.94,1.12,0,0,1.94,2,0,0-1.94,1.8,0h1.25l0-1.93-1.25,0-.16-9.38,1.36,0,0-1.93-1.38,0h0l-1.8,0,0-2.26-2,0,0,2.26h-1.12l0-2.25-2,0,0,2.33C665.25,138.16,664.12,139.43,664.16,141.39ZM672,149l-2.67,0c-1.48,0-2.31-.58-2.35-1.8s.81-1.83,2.29-1.85l3,0,.06,3.65Zm-3.26-9.33,3.23,0h.22l.09,3.82-3.46,0c-1.62,0-2.5-.55-2.52-1.88s.82-1.93,2.43-2Z" fill="#fff"/>
<path d="M655.23,152.28l.08.1.21.33.33.53a6.76,6.76,0,0,0,.49.7l.66.85c.24.31.55.6.86.94a10,10,0,0,0,1.07,1,5.17,5.17,0,0,0,.62.52l.68.48a17.22,17.22,0,0,0,3.3,1.78l1,.35.5.17.52.13c.35.08.71.18,1.07.25l1.11.16a11.13,11.13,0,0,0,1.15.09,7.75,7.75,0,0,0,1.18,0l1.2,0,1.22-.17a17.36,17.36,0,0,0,4.84-1.62,17.58,17.58,0,0,0,4.12-3,17,17,0,0,0,2.83-3.81l.49-1,.12-.25.09-.25.19-.51a17.06,17.06,0,0,0,.6-2c.08-.32.12-.65.18-1a7.87,7.87,0,0,0,.12-1,13.54,13.54,0,0,0,.06-1.8,11.18,11.18,0,0,0-.12-1.63,10.22,10.22,0,0,0-.25-1.45c-.11-.44-.19-.86-.31-1.23s-.25-.71-.35-1-.21-.52-.33-.77-.2-.41-.27-.57-.11-.27-.16-.36a.56.56,0,0,1,0-.12l.06.11c0,.09.11.2.18.35l.28.56a5.89,5.89,0,0,1,.35.77l.37,1c.14.39.21.8.34,1.24a10.25,10.25,0,0,1,.26,1.45,11.48,11.48,0,0,1,.14,1.65,15.74,15.74,0,0,1,0,1.82,7.16,7.16,0,0,1-.12.93,9.09,9.09,0,0,1-.17,1,16.06,16.06,0,0,1-.59,2c-.06.17-.12.35-.19.52l-.1.26-.11.26c-.17.33-.33.67-.5,1a17.15,17.15,0,0,1-2.84,3.87,17.64,17.64,0,0,1-4.19,3,17,17,0,0,1-4.9,1.6l-1.23.17-1.22.06a11.62,11.62,0,0,1-1.18,0,11.32,11.32,0,0,1-1.16-.09l-1.12-.17-1.08-.26-.53-.13-.5-.18-1-.34a17.64,17.64,0,0,1-3.33-1.82l-.69-.5c-.23-.16-.41-.37-.61-.52a10.22,10.22,0,0,1-1.07-1c-.31-.35-.62-.64-.86-1l-.64-.86a5.63,5.63,0,0,1-.48-.72c-.12-.22-.23-.38-.32-.54l-.19-.34A.61.61,0,0,1,655.23,152.28Z" fill="#fafafa"/>
<ellipse cx="699.68" cy="189.96" rx="16.45" ry="16.08" transform="translate(87.47 578.33) rotate(-47.58)" fill="#0071f2" data-primary="true"/>
<ellipse cx="699.51" cy="189.92" rx="12.53" ry="11.95" transform="translate(108.23 609.17) rotate(-50.53)" fill="#fff" opacity="0.2" style="isolation:isolate"/>
<path d="M709,197A12.46,12.46,0,0,1,692,199.92a1.78,1.78,0,0,0,.27.21,12.53,12.53,0,0,0,15.06-20,2.83,2.83,0,0,0-.28-.2A12.33,12.33,0,0,1,709,197Z" fill="#fafafa"/>
<path d="M690,182.8A12.46,12.46,0,0,1,707,179.92a1.78,1.78,0,0,0-.27-.21,12.53,12.53,0,0,0-15.06,20c.08.07.19.13.28.2A12.34,12.34,0,0,1,690,182.8Z" opacity="0.3" style="isolation:isolate"/>
<path d="M706,188.32a3.26,3.26,0,0,0-3.81-.8,3.45,3.45,0,0,0-5.38-3.37l-1.51-1.45-1.37,1.41,1.39,1.35-.78.8-1.39-1.35-1.38,1.41,1.4,1.35L691.89,189l-.87.9,1.39,1.34.87-.9,6.75,6.52-.94,1,1.39,1.35,1-1h0l1.26-1.29,1.62,1.57L705.7,197l-1.63-1.57.78-.8,1.63,1.56,1.37-1.41-1.67-1.62C707.49,191.38,707.39,189.68,706,188.32Zm-11,.18,1.86-1.9c1-1.07,2.05-1.23,2.94-.39s.72,1.86-.31,2.92l-2.12,2.17-2.62-2.53Zm8.9,4.3-2.25,2.31-.16.16-2.76-2.64,2.42-2.48c1.12-1.15,2.15-1.37,3.1-.45s.79,2-.34,3.1Z" fill="#fff"/>
<path d="M704.6,174.31h-.13l-.38-.08-.61-.14a8,8,0,0,0-.85-.16l-1.06-.13c-.39,0-.82,0-1.27-.06a11.8,11.8,0,0,0-1.46.06,5.4,5.4,0,0,0-.8.07l-.83.14a17.27,17.27,0,0,0-3.59,1.08l-.94.44c-.16.08-.32.15-.48.24l-.45.28c-.31.18-.63.37-.93.57l-.91.68a10.29,10.29,0,0,0-.87.74,8.23,8.23,0,0,0-.85.82l-.82.89-.74,1a17.36,17.36,0,0,0-2.27,4.56,17.94,17.94,0,0,0-.81,5,17.69,17.69,0,0,0,.7,4.69l.36,1.05.09.26.12.25.22.5a16.16,16.16,0,0,0,1,1.83c.17.29.38.54.57.81a8.61,8.61,0,0,0,.58.77,13.82,13.82,0,0,0,1.23,1.31,16.26,16.26,0,0,0,2.44,1.92c.39.23.75.47,1.09.65l1,.46a6.71,6.71,0,0,0,.78.32l.59.21.36.14a.34.34,0,0,1,.12.06l-.13,0-.36-.12-.6-.2a5.36,5.36,0,0,1-.79-.3l-1-.45c-.37-.18-.71-.41-1.11-.64a10.16,10.16,0,0,1-1.22-.84,12.62,12.62,0,0,1-1.26-1.06,15.73,15.73,0,0,1-1.25-1.33,7,7,0,0,1-.58-.74c-.19-.27-.4-.52-.58-.82a14.4,14.4,0,0,1-1-1.85l-.24-.5-.11-.26-.1-.26c-.12-.35-.25-.71-.38-1.07a17.41,17.41,0,0,1-.72-4.75,17.78,17.78,0,0,1,.82-5.11,17.27,17.27,0,0,1,2.33-4.59l.75-1,.82-.9a11.1,11.1,0,0,1,.86-.82,10.69,10.69,0,0,1,.89-.75l.91-.68c.31-.2.64-.38.94-.57l.47-.29.48-.23.94-.45a17.76,17.76,0,0,1,3.63-1.06l.84-.14c.28-.05.56,0,.8-.07a12.19,12.19,0,0,1,1.48,0,12.51,12.51,0,0,1,1.28.07l1.07.15a8.33,8.33,0,0,1,.84.17l.61.16.38.1Z" fill="#fafafa"/>
<path d="M716.71,323.24l-72.54-9.32a6.23,6.23,0,0,1-5.4-7l6.6-51.41a6.25,6.25,0,0,1,7-5.4,239.61,239.61,0,0,0,32.15,6.93,239,239,0,0,0,40.39,2.38,6.36,6.36,0,0,1,4.14,2.38,6.2,6.2,0,0,1,1.25,4.61l-6.6,51.41A6.24,6.24,0,0,1,716.71,323.24Z" fill="#2f2e41" data-secondary="true"/>
<path d="M716.71,323.24l-72.54-9.32a6.23,6.23,0,0,1-5.4-7l6.6-51.41a6.25,6.25,0,0,1,7-5.4,239.61,239.61,0,0,0,32.15,6.93,239,239,0,0,0,40.39,2.38,6.36,6.36,0,0,1,4.14,2.38,6.2,6.2,0,0,1,1.25,4.61l-6.6,51.41A6.24,6.24,0,0,1,716.71,323.24Z" opacity="0.2"/>
<path d="M636.24,232.32l23.93,24.46s15.44,3.29,19.6,4l-.17-42.33L665,203.35Z" fill="#0071f2" data-primary="true"/>
<path d="M636.24,232.32l23.93,24.46s15.44,3.29,19.6,4l-.17-42.33L665,203.35Z" opacity="0.2"/>
<path d="M638.84,232l23.24,25.15s10.41,2.26,24.63,4.69l-8.5-43L665.38,206.3Z" fill="#fff"/>
<path d="M647.51,236.48a7.28,7.28,0,0,0,0-7.63l14-13.7s5.38,2.42,8.33.34l7.28,8.16,9.54,38.16a149.7,149.7,0,0,1-17.87-3.36S658.79,247.76,647.51,236.48Z" fill="#0071f2" opacity="0.28" data-primary="true"/>
<ellipse cx="675.7" cy="246.89" rx="11.01" ry="11.27" fill="#0071f2" data-primary="true"/>
<ellipse cx="675.7" cy="246.89" rx="11.01" ry="11.27" opacity="0.2"/>
<path d="M532.12,286.81a4.14,4.14,0,0,0,2.12.6c1.21,0,1.91-.64,1.91-1.56s-.48-1.35-1.72-1.82c-1.5-.53-2.42-1.31-2.42-2.6s1.18-2.48,3-2.48a4.19,4.19,0,0,1,2,.45l-.33,1a3.7,3.7,0,0,0-1.74-.43c-1.25,0-1.72.74-1.72,1.37,0,.85.55,1.27,1.82,1.76,1.54.6,2.33,1.35,2.33,2.69s-1,2.64-3.2,2.64a4.68,4.68,0,0,1-2.34-.59Z" fill="#0071f2" data-primary="true"/>
<path d="M543.72,284h-3.56v3.3h4v1H539V279.1h4.94v1h-3.76V283h3.56Z" fill="#0071f2" data-primary="true"/>
<path d="M545.66,288.25V279.1H547l2.93,4.63a25.33,25.33,0,0,1,1.64,3h0c-.11-1.22-.14-2.34-.14-3.76V279.1h1.12v9.15h-1.2l-2.9-4.64a28.75,28.75,0,0,1-1.71-3.06h-.05c.07,1.16.1,2.26.1,3.78v3.91Z" fill="#0071f2" data-primary="true"/>
<path d="M554.59,279.22a16.79,16.79,0,0,1,2.51-.19,5.23,5.23,0,0,1,3.71,1.14,4.25,4.25,0,0,1,1.29,3.29,4.85,4.85,0,0,1-1.32,3.56,5.65,5.65,0,0,1-4,1.31,18.56,18.56,0,0,1-2.15-.11Zm1.18,8.09a6.84,6.84,0,0,0,1.2.07,3.51,3.51,0,0,0,3.89-3.88c0-2.16-1.2-3.53-3.7-3.53a6.57,6.57,0,0,0-1.39.12Z" fill="#0071f2" data-primary="true"/>
<path d="M679.77,260.77s-9.54-34.18-11.79-38.34c0,0,21-8.32,40.41-12.31,0,0,11.28,37.64,12.49,53.77C720.88,263.89,696.25,264.06,679.77,260.77Z" fill="#0071f2" data-primary="true"/>
<path d="M670.23,223.82s9.54-4.68,36.6-11.62c0,0,10.06,37.29,12,51.86,0,0-28.62-1-37.12-3.29Z" fill="#fff"/>
<path d="M675.61,231.45s4.16-2.6,3.47-7.28L699,217.75s3.29,4.33,7.46,4.33l8.67,37.47s-20.47-.17-31.57-2.77C683.59,256.78,677.17,234.05,675.61,231.45Z" fill="#0071f2" opacity="0.28" data-primary="true"/>
<ellipse cx="698.07" cy="252.96" rx="14.14" ry="14.4" fill="#0071f2" data-primary="true"/>
<ellipse cx="704.37" cy="259.52" rx="16.45" ry="16.08" transform="matrix(0.67, -0.74, 0.74, 0.67, 37.64, 604.43)" fill="#0071f2" data-primary="true"/>
<ellipse cx="704.19" cy="259.47" rx="12.53" ry="11.95" transform="translate(56.25 638.13) rotate(-50.53)" fill="#fff" opacity="0.2" style="isolation:isolate"/>
<path d="M713.72,266.6a12.46,12.46,0,0,1-17.07,2.87,1.51,1.51,0,0,0,.28.22,12.53,12.53,0,0,0,15.06-20,1.87,1.87,0,0,0-.29-.2A12.32,12.32,0,0,1,713.72,266.6Z" fill="#fafafa"/>
<path d="M694.64,252.36a12.46,12.46,0,0,1,17.07-2.88,1.44,1.44,0,0,0-.27-.22,12.53,12.53,0,0,0-15.06,20,2.43,2.43,0,0,0,.28.2A12.35,12.35,0,0,1,694.64,252.36Z" opacity="0.3" style="isolation:isolate"/>
<path d="M710.66,257.88a3.24,3.24,0,0,0-3.81-.8,3.24,3.24,0,0,0-1.07-3.08,3.21,3.21,0,0,0-4.31-.29l-1.5-1.45-1.38,1.41L700,255l-.78.8-1.4-1.35-1.37,1.41,1.39,1.35-1.25,1.29-.87.89,1.38,1.34.87-.89,6.75,6.52-.94,1,1.39,1.34,1-1h0l1.25-1.28L709,268l1.38-1.42L708.75,265l.79-.8,1.62,1.57,1.38-1.41-1.68-1.62C712.18,260.94,712.08,259.24,710.66,257.88Zm-10.94.18,1.86-1.91c1-1.06,2-1.22,2.94-.39s.72,1.86-.32,2.93l-2.11,2.17-2.63-2.54Zm8.89,4.29-2.25,2.32-.16.16-2.76-2.65,2.42-2.47c1.12-1.16,2.15-1.38,3.11-.46s.78,1.95-.34,3.11Z" fill="#fff"/>
<path d="M709.28,243.87l-.13,0-.38-.08-.61-.14a6.17,6.17,0,0,0-.84-.15l-1.07-.13a12.44,12.44,0,0,0-1.27-.06,8.87,8.87,0,0,0-1.46.06,4.33,4.33,0,0,0-.8.07l-.83.14a16.66,16.66,0,0,0-3.59,1.07l-.94.45-.47.23-.46.28c-.3.19-.62.37-.93.58l-.9.67a8.94,8.94,0,0,0-.88.75,7.3,7.3,0,0,0-.85.82l-.81.89-.74,1a17.3,17.3,0,0,0-2.28,4.57,17.51,17.51,0,0,0-.8,5,17,17,0,0,0,.7,4.7l.35,1.05.1.26.11.25.23.49a17.84,17.84,0,0,0,1,1.83c.17.29.39.55.57.82a8.59,8.59,0,0,0,.59.76,15.26,15.26,0,0,0,1.22,1.32,12.81,12.81,0,0,0,1.25,1.07,10.68,10.68,0,0,0,1.19.84c.4.23.75.48,1.1.65l1,.47c.26.12.52.22.78.31l.59.22.36.14a.33.33,0,0,1,.12.05l-.12,0L699,275l-.6-.2a5.82,5.82,0,0,1-.79-.3l-1-.45c-.37-.18-.71-.42-1.11-.64a10,10,0,0,1-1.21-.84,11.78,11.78,0,0,1-1.27-1.07,14.22,14.22,0,0,1-1.25-1.32,6.63,6.63,0,0,1-.57-.74c-.19-.27-.41-.53-.59-.82a16.72,16.72,0,0,1-1-1.86l-.24-.5-.11-.25-.1-.26-.37-1.08a17.36,17.36,0,0,1-.73-4.75,18,18,0,0,1,.82-5.1,17.63,17.63,0,0,1,2.33-4.6l.75-1,.83-.9a8.14,8.14,0,0,1,.85-.81,9.05,9.05,0,0,1,.89-.75l.91-.68c.32-.21.64-.39,1-.58l.46-.28.48-.23.94-.45a17.09,17.09,0,0,1,3.64-1.07l.84-.13c.27-.05.55,0,.8-.07a10.31,10.31,0,0,1,1.47,0c.46,0,.89,0,1.28.07l1.07.16a4.63,4.63,0,0,1,.84.17l.61.16.38.1Z" fill="#fafafa"/>
<path d="M729.09,270.64l-6.6,51.41a6.25,6.25,0,0,1-7,5.4L643,318.14a6.24,6.24,0,0,1-5.39-7l2.44-19,4.15-32.36a6.25,6.25,0,0,1,7-5.4,238.4,238.4,0,0,0,32.15,6.93,239,239,0,0,0,40.39,2.38,6.45,6.45,0,0,1,4.15,2.38A6.24,6.24,0,0,1,729.09,270.64Z" fill="#2f2e41" data-secondary="true"/>
<path d="M722.49,322.05a6.25,6.25,0,0,1-7,5.4L643,318.14a6.24,6.24,0,0,1-5.39-7l2.44-19h0a54.64,54.64,0,0,0,12.8,11.8C664.68,311.72,688.35,323.38,722.49,322.05Z" opacity="0.2"/>
<path d="M702.75,280h23.1a4.18,4.18,0,0,1,4.18,4.18V297.5a4.18,4.18,0,0,1-4.18,4.18h-23.1a5.31,5.31,0,0,1-5.31-5.31v-11a5.31,5.31,0,0,1,5.31-5.31Z" transform="matrix(0.99, 0.14, -0.14, 0.99, 49.68, -100.35)" fill="#0071f2" data-primary="true"/>
<path d="M702.75,280h23.1a4.18,4.18,0,0,1,4.18,4.18V297.5a4.18,4.18,0,0,1-4.18,4.18h-23.1a5.31,5.31,0,0,1-5.31-5.31v-11a5.31,5.31,0,0,1,5.31-5.31Z" transform="translate(49.68 -100.35) rotate(8.33)" opacity="0.2"/>
<path d="M702.33,282.19h23.1a4.18,4.18,0,0,1,4.18,4.18v13.28a4.18,4.18,0,0,1-4.18,4.18h-23.1a5.31,5.31,0,0,1-5.31-5.31v-11a5.31,5.31,0,0,1,5.31-5.31Z" transform="matrix(0.99, 0.14, -0.14, 0.99, 49.98, -100.26)" fill="#0071f2" data-primary="true"/>
<circle cx="706.03" cy="289.67" r="6.32" opacity="0.2"/>
<path d="M275,303.14s24.46-5,28.48-43.56c0,0,2.94,7.92-.67,14.41,0,0-11.06,24.8,9.72,42.22Z" fill="#2f2e41" data-secondary="true"/>
<path d="M275,303.14s24.46-5,28.48-43.56c0,0,2.94,7.92-.67,14.41,0,0-11.06,24.8,9.72,42.22Z" opacity="0.2"/>
<polygon points="295.57 330.43 236.31 343.09 238.03 377.61 288.09 474.85 327.21 452.99 295.57 330.43" fill="#e6e7e8"/>
<path d="M177.83,360.11,151,375.93s-14.05,3.95-9.66,27.67c0,0,9.66,50,17.12,72.45,0,0,4.83,42.15,25.91,77.72,0,0,14.49,29.86,24.59,15.81,0,0,13.17-9.22,22.39-11.86a82.31,82.31,0,0,1-16.9,39.69,5,5,0,0,0,.83,7.08c5.33,4.26,17.33,10.76,41.54,11.63,0,0,76.85,16.69,68.94-32,0,0-.88-25.47,0-33.81,0,0,10.1,45.23,32.5,63.67,0,0,27,1.66,48.73-29.44a5,5,0,0,0,.25-5.29L396.1,559.59a17.06,17.06,0,0,1-2.08-5.82,36,36,0,0,0-4.56-12.44,50,50,0,0,1-4.07-9c-3.07-9-9.41-26.4-14.82-34.36l-.88-28.54s39.08,42.16,58.4,28.1c0,0,32.5-19.32,74.21-97,0,0-32.05-7.46-45.22-27.66,0,0-17.57,25-27.67,47.42,0,0-7,12.74-14.93,17.57,0,0-9.22-18-27.22-37.77,0,0-9.53-22.79-17.2-46.52a109.36,109.36,0,0,1-3.3-13.5c-1.44-7.74-9.31-24.46-50.43-22.86L301.82,442.64l-8.27,5.28-1-2.18L276.79,458.2l-11.92-21.81L229.7,404.13Z" fill="#0071f2" data-primary="true"/>
<path d="M294.74,451.93l12-15.24,9.59-119.49,9,.12c-9.72,14.57-13.15,91.42-13.15,91.42,1.43,17.72,12.58,6.86,12.58,6.86,11.14-21.71,25.71-8.86,25.71-8.86,16.29,5.15,18.57-14.85,18.57-14.85a321.69,321.69,0,0,0,7.43,48.28c3.36,13.08,7.73,22.82,12.05,30a35.39,35.39,0,0,0,30.66,17.07c5,0,9.29.09,9.29.09,9.14,0,25.71-14,25.71-14C437,493,428.09,497.56,428.09,497.56c-18.92,14-58.4-28.1-58.4-28.1l.88,28.54a68.09,68.09,0,0,1,4.4,7.67c-7.06-1.22-9.74-10.72-9.74-10.72-4.39-23.15-34.84-15.84-34.84-15.84-8.28-.73-2.19,42.63-2.19,42.63,7.31,26.8-.24,37.52-.24,37.52l-2.18-9-9.27-40C287.76,556.34,224,582.24,224,582.24s7.93-19.92,6.86-24.42c0,0,3.31-.12,15.41-9.76a30.35,30.35,0,0,1,10.29-6.32,193.38,193.38,0,0,0,18.78-9S290,522.63,295,519.63l21.14-14.29,3.86-2.28s-8.4-11.92-13.27-22.89h0l-12-28.24" opacity="0.1"/>
<path d="M166.77,409.71a27.74,27.74,0,0,0-3.81-11c-2.57-4.31-7-14.89,2.16-26.15a37.34,37.34,0,0,1,12.71-12.46l6.6,46.07L213,410.42l16.68-6.29,35.17,32.26,11.92,21.81-29,15.57s-19.31,8.5-27,20.47c0,0-1.93-25.49-8.11-34a51.16,51.16,0,0,1-8.5-23.17s-10,15.45-.38,30.51c0,0-18.11,1.78-22.82-18.19a29.24,29.24,0,0,1,1.57-17.49c.93-2.34,1.72-5,1.55-6.81,0,0-13.52,16.61-29,8.89C155.08,434,168.6,425.81,166.77,409.71Z" opacity="0.1"/>
<path d="M236.81,317.22l6.36,21.11,15.75,1S272,325.59,276,301.8l-26.13-8.37S246.53,307.83,236.81,317.22Z" fill="#f9b499"/>
<path d="M247.2,338.66a17.05,17.05,0,0,1-5.37-16.42,34.09,34.09,0,0,1,3.44-10.13,14.2,14.2,0,0,1,13.9-7.4c4.42.46,10.67.54,15.84-1.57l-25.13-9.71s-4.7,16.41-13.07,23.79l6.36,21.11Z" fill="#f7a48b"/>
<path d="M177.83,360.11s-14.81,13.42-7,40.45c0,0,8.65,25.13-12.17,30.54,0,0,28.12-2.7,24.06-21.35Z" fill="#2f2e41" data-secondary="true"/>
<path d="M195.73,460s-13.79-20,8.92-45.68l15.94-65.41s-15.13-.81-15.4.81-18.11,46.76-18.11,46.76l4,29.46-3,8.38S176.8,456.78,195.73,460Z" fill="#2f2e41" data-secondary="true"/>
<path d="M195.73,460s-13.79-20,8.92-45.68l15.94-65.41s-15.13-.81-15.4.81-18.11,46.76-18.11,46.76l4,29.46-3,8.38S176.8,456.78,195.73,460Z" opacity="0.2"/>
<path d="M276.79,458.2l-10.14-18.56a22.41,22.41,0,0,0-4.5-5.74L229.7,404.13l5.1-15.54s4.78-7.43,5.95-11.79c0,0,20.64,29.36,25.58,39.25,0,0,14.24,29.94,20.64,35.17Z" fill="#0071f2" data-primary="true"/>
<path d="M276.79,458.2l-10.14-18.56a22.41,22.41,0,0,0-4.5-5.74L229.7,404.13l5.1-15.54s4.78-7.43,5.95-11.79c0,0,20.64,29.36,25.58,39.25,0,0,14.24,29.94,20.64,35.17Z" fill="#fff" opacity="0.3"/>
<path d="M301.21,441.92s-12.5-60.18-11-86.05c0,0-6.11-45.35-14.25-52.62l40.41,13.95-9.59,119.49Z" fill="#0071f2" data-primary="true"/>
<path d="M301.21,441.92s-12.5-60.18-11-86.05c0,0-6.11-45.35-14.25-52.62l40.41,13.95-9.59,119.49Z" fill="#fff" opacity="0.3"/>
<path d="M242.55,373l5.75,3.56s14.85-17.38,10.62-37.18l-15.75-1S248.94,353.76,242.55,373Z" fill="#0071f2" data-primary="true"/>
<path d="M281.15,365.17s-12.22-10.87-13.56-21.31a5.83,5.83,0,0,0-1.93-3.66c-1.32-1.15-3.46-2-6.74-.87,0,0,13.71-15.74,17.09-37.53,0,0,7.5,11.68,11.25,36.34C287.26,338.14,282.9,359.65,281.15,365.17Z" fill="#0071f2" data-primary="true"/>
<path d="M232.88,425.33a6.26,6.26,0,0,0,1.14-2.8c.43-3,2-9.24,7.72-4.21a132.72,132.72,0,0,1,19.07,20.35l12.43,14.57S242.81,470,233.16,461c0,0-3.21-2.36-5.78-10.07,0,0-8.14-8.15.86-19.07Z" fill="#0071f2" data-primary="true"/>
<path d="M457.08,372.86s6-5.32,15.63-25.49l5.42-11.74a78.37,78.37,0,0,1,7.53-14.44s11.13-25,14.74-23.18c0,0,6.92-1.2-2.1,20.47l-1.21,3.61,46.05-14.44s8.13-2.11,9.63,1.2c0,0,2.71,2.41-6.62,7.82l-28,12.34s9.33,3.92,6,12c0,0,6,3,.6,9.93,0,0,8.43,5.72-1.2,9.94,0,0-17.46,9-26.19,11.13l-12.64,22.27S469.43,389.62,457.08,372.86Z" fill="#f9b499"/>
<path d="M514.55,335c-2.53,1.33-5.06,2.66-7.53,4.08s-4.95,2.83-7.32,4.39a35.68,35.68,0,0,0-6.6,5.23c-.88,1-1.64,2.38-.65,3.06a7.88,7.88,0,0,0,3.79,1.1l.61.08-.19.6a1.41,1.41,0,0,0,0,.86,1.83,1.83,0,0,0,.55.76,4.82,4.82,0,0,0,2,.84,8.87,8.87,0,0,0,1.15.18,11.7,11.7,0,0,0,1.19.07c.79.05,1.59,0,2.4,0l1.08,0-.74.79a2.5,2.5,0,0,0-.84,2.28c.24.73,1.17,1.21,2.06,1.51a22.27,22.27,0,0,0,5.91.75,117.3,117.3,0,0,0,12.12-.64,84.83,84.83,0,0,1-12.12,1.25,22.57,22.57,0,0,1-6.15-.59,5.92,5.92,0,0,1-1.49-.65,2.66,2.66,0,0,1-1.15-1.35,2.47,2.47,0,0,1,.1-1.78,4.91,4.91,0,0,1,.93-1.42l.34.77c-.82,0-1.65.09-2.48.06-.42,0-.83,0-1.25-.07a10.92,10.92,0,0,1-1.26-.18,5.65,5.65,0,0,1-2.44-1,2.7,2.7,0,0,1-.87-1.19,2.38,2.38,0,0,1,0-1.54l.42.68a18.08,18.08,0,0,1-2.18-.38,5.53,5.53,0,0,1-2.12-1,2.22,2.22,0,0,1-.74-1.12,2.31,2.31,0,0,1,.08-1.31,6,6,0,0,1,1.24-2,22.27,22.27,0,0,1,3.28-2.88c1.16-.86,2.36-1.65,3.59-2.4,2.44-1.49,5-2.87,7.5-4.17S511.92,336.15,514.55,335Z" fill="#f7a48b"/>
<path d="M496.19,353.39s13.84-4.21,22.27-9" fill="none" stroke="#f7a48b" stroke-miterlimit="10"/>
<path d="M504,356.7s13-1.8,18.66-4.81" fill="none" stroke="#f7a48b" stroke-miterlimit="10"/>
<path d="M457.08,372.86s23.46,12.73,33.09,11.53l-5.42,9.93S468.82,389.62,457.08,372.86Z" fill="#f7a48b"/>
<path d="M306.74,480.17l19.14-13.43s57.71-2.14,44-18.42c0,0,5.57-2.15,0-9.43,0,0,6.81-3.1,2.8-8.24a9,9,0,0,0-5.75-3.27c-4.45-.72-12.52-2.41-4.77-4.35,0,0,47.58-3.64,44.15-12.86,0,0-.86-6-24.43-1.71l-43.72,4.28s13.72-14.57,9-23.14l-.13-.22a2.94,2.94,0,0,0-5-.08c-5.26,8.19-17.51,27.14-25.72,39.3L293.16,447Z" fill="#f9b499"/>
<path d="M330.66,417a19.78,19.78,0,0,0,7.5-4.29" fill="none" stroke="#f7a48b" stroke-miterlimit="10"/>
<line x1="362.74" y1="438.46" x2="369.88" y2="438.89" fill="none" stroke="#f7a48b" stroke-miterlimit="10"/>
<line x1="361.31" y1="449.32" x2="369.88" y2="448.32" fill="none" stroke="#f7a48b" stroke-miterlimit="10"/>
<path d="M296.45,444.46s13.14,24.86,20.86,28l-10.57,7.71L293.16,447Z" fill="#f7a48b"/>
<path d="M231.56,558.19l-.37-.93c5-1.94,10.56-6.23,14.36-9.49a41.1,41.1,0,0,1,12.7-7.44,112.12,112.12,0,0,0,18.08-8.91l42.94-28.63c-1.53-1.81-7.32-9.28-14.68-26.16L292.4,446.4c-2.58,2.72-14.46,14.25-40.56,26-.2.07-14,4.39-30.73,22.2l-.73-.69c16.92-18,31-22.4,31.11-22.44,29.41-13.24,40.58-26.17,40.69-26.3l.54-.63,12.79,31.71c8.34,19.13,14.81,26.24,14.88,26.31l.4.43-43.92,29.28a111.8,111.8,0,0,1-18.28,9,40.25,40.25,0,0,0-12.39,7.26C242.34,551.84,236.67,556.2,231.56,558.19Z" fill="#0071f2" data-primary="true"/>
<g opacity="0.2">
<path d="M231.56,558.19l-.37-.93c5-1.94,10.56-6.23,14.36-9.49a41.1,41.1,0,0,1,12.7-7.44,112.12,112.12,0,0,0,18.08-8.91l42.94-28.63c-1.53-1.81-7.32-9.28-14.68-26.16L292.4,446.4c-2.58,2.72-14.46,14.25-40.56,26-.2.07-14,4.39-30.73,22.2l-.73-.69c16.92-18,31-22.4,31.11-22.44,29.41-13.24,40.58-26.17,40.69-26.3l.54-.63,12.79,31.71c8.34,19.13,14.81,26.24,14.88,26.31l.4.43-43.92,29.28a111.8,111.8,0,0,1-18.28,9,40.25,40.25,0,0,0-12.39,7.26C242.34,551.84,236.67,556.2,231.56,558.19Z"/>
</g>
<ellipse cx="270.11" cy="249.32" rx="34.46" ry="54.4" fill="#f9b499"/>
<path d="M177.83,360.11s-14.81,13.42-7,40.45c0,0,8.65,25.13-12.17,30.54,0,0,28.12-2.7,24.06-21.35Z" opacity="0.2"/>
<path d="M280.37,211.33s8.37-12.31,13.93,1.48a30.27,30.27,0,0,1,2,13.69c-.47,5.93-.55,16.54,3.68,23.9a27.38,27.38,0,0,1,2.47,5.36c1.48,4.69,3.37,12.95.39,18.23,0,0,12.06-10.39,9.05-38.2,0,0,2.68-23.79-13.07-36.86,0,0-10.39-27.81-25.47-15.75,0,0-35.18-18.09-66.35,5,0,0-24.12,17.42-14.74,78.41,0,0,4.36,31.83-13.74,55.29a36.76,36.76,0,0,0-.67,38.2s-16.42,22.78.34,43.22c0,0,19.43,20.11,1.67,34.18,0,0,6.37-3.68,9.72-8.37,0,0-14.74,24.79,2,30.15,0,0-8.55-10.13-3.18-21.16.35-.71.7-1.42,1-2.15,1.73-4.4,7.29-19.93,3.87-29.63,0,0-10.06-21.45,15.41-40.88A11.16,11.16,0,0,0,214,353.41s5,3.35-6,20.77c0,0-12,17.34-7.39,33a20.09,20.09,0,0,0,16.12,14,78.16,78.16,0,0,0,14.06.86s-6.37-5,4-33.51c0,0,17.09-22.79,8.37-50.26l-6.36-21.11s9-8.38,13.07-23.79c0,0,5.63-14.95,1.91-35.52a74.54,74.54,0,0,1-.76-23.23c1.19-8.75,4.1-19.13,10.91-27C261.94,207.64,271.32,196.59,280.37,211.33Z" fill="#2f2e41" data-secondary="true"/>
<path d="M173.56,350.82a36.23,36.23,0,0,0,13.52-25.13s3.24-24.6,16.48-32.44a46.89,46.89,0,0,0-5.13,26.22s1.51,26.14-20.6,40.64C177.83,360.11,176.8,358.66,173.56,350.82Z" opacity="0.2"/>
<path d="M236.81,317.22s-21.89,30.09-9.46,63.06c0,0-1.89-6.48,0-11.62,0,0,1.89,11.08,5.41,14.06,0,0-6.76-29.19,9.19-47.57Z" opacity="0.2"/>
<path d="M217.35,219.73s5.13,68.38-10.54,82.17c0,0,21.08-3,15.67-47Z" opacity="0.2"/>
<path d="M247.89,176.48s33.6,10.5,32.48,34.85C280.37,211.33,286.27,180.54,247.89,176.48Z" opacity="0.2"/>
</g>
</svg>