 <!DOCTYPE svg PUBLIC "-//W3C//DTD SVG 1.1//EN" "http://www.w3.org/Graphics/SVG/1.1/DTD/svg11.dtd">
<svg id="fcd9c7c6-4157-44db-9cfe-32590dc1a6ad" data-name="Layer 1" xmlns="http://www.w3.org/2000/svg" width="865.76" height="682.89" viewBox="0 0 865.76 682.89">
<defs>
<style xmlns="http://www.w3.org/1999/xhtml">*, ::after, ::before { box-sizing: border-box; }
img, svg { vertical-align: middle; }
</style>
<style xmlns="http://www.w3.org/1999/xhtml">*, body, html { }
img, svg { max-width: 100%; }
</style>
</defs>
<path d="M465.61,631.12s28.32,34.52,69.68,50.47h35.49l-49.5-32.2a67.27,67.27,0,0,0-7-4,42.76,42.76,0,0,1-15.8-13.79,34.66,34.66,0,0,1-2.54-4.32c-3.78-7.47-17.35-34.43-19.87-41.7Z" fill="#f9b499"/>
<path d="M343.83,601.17s-1.63,29,25.72,80.42h30.28a357.22,357.22,0,0,1-18.33-36.28,72.68,72.68,0,0,1-5.32-34.3l.86-9.84Z" fill="#f9b499"/>
<path d="M346.76,536.8s14.54-48.4,89.43-35.6c0,0,33.76,4.22,43.84,39.09a64.51,64.51,0,0,1,2.34,20.46c-.27,6.68-1.19,16.63-4.09,25.28-.88,2.62-1.73,5.25-2.43,7.93-4.21,16.07-16.27,66.18-8.94,87.63H361.74s-3.58-86,7.49-118.52Z" fill="#0071f2" data-primary="true"/>
<path d="M453.81,532.74s9.94-4.85,21.95-27.72c0,0,4.7.92,0,9,0,0-6.68,9,2.09,8.31,0,0,5,1.1,17.45-8.23a3.5,3.5,0,0,1,3.16-.6c.87.29,1.33,1-.29,2.6l-10.4,8.78S503.05,517,506.14,518c0,0,3.91,1.47-5.21,5.7a24.09,24.09,0,0,1,6.32-.59,1.42,1.42,0,0,1,.74,2.5c-1.36,1.18-4.7,2.81-12.59,4.6,0,0,8.14-.81,7.49,1.47,0,0-1,3.42-25.56,8.3,0,0-16.28,3.91-18.07,6.35Z" fill="#f9b499"/>
<path d="M516.73,525.66s-4.78-9.7,0-12.95c0,0,.43,2.39,7.59,16.5,0,0,6.3,10.2,5,25.18,0,0,5.86,12.59,22.79,25l33.64,24.31,29.74-36.9s21.06-34.52,33.22-38.64L645,587.6s-14.76,11.07-23.66,20c0,0-22.14,26.92-44.5,17.15,0,0-13.24-7.93-30.49-27.46,0,0-21.82-27.35-26.7-35.49,0,0-10.31-13.25-3.26-23.77C516.4,538,521,534.16,516.73,525.66Z" fill="#f9b499"/>
<path d="M789.91,636s-37.77-41-42.33-53.4l11.07-43.31s45.26,66.75,50.15,94.26a13.91,13.91,0,0,1-4.24,11.89l-26.31,37.44H765.82S776.89,647.4,789.91,636Z" fill="#f9b499"/>
<path d="M674.19,492.35a46.15,46.15,0,0,1,3.39,15s19.14-4,35.29-.63c0,0-17.33-19.21-14.84-40.95a4,4,0,0,1-5.33.49S688.4,485.15,674.19,492.35Z" fill="#f9b499"/>
<path d="M455.51,531.49s-17.26-6.84-79.45,30.6c0,0-6.18-3.25-23.77-24.09,0,0-38-45.72-69.93-50.77,0,0,5.8,9.14-10.37,8.37-2.22-.11-4.44-.12-6.65,0-5.72.3-9.19-.71-5.65-8.36,0,0-54.46,11.8-78.34,66.94L176.88,641l27.48,29.52s3.47,7.38,8.68,11.07H322.88s3.47-3.26,2.17-11.94c0,0,3.19-56.1.29-71.24,0,0,19.25,16.3,42.69,9.69,0,0,81.62-29.62,95.08-63.48C463.11,544.62,455.51,540,455.51,531.49Zm-240.75,79s-8.23-18.75,4.77-33.72C219.53,576.82,220,598,214.76,610.54Z" fill="#0071f2" data-primary="true"/>
<path d="M455.51,531.49s-17.26-6.84-79.45,30.6c0,0-6.18-3.25-23.77-24.09,0,0-38-45.72-69.93-50.77,0,0,5.8,9.14-10.37,8.37-2.22-.11-4.44-.12-6.65,0-5.72.3-9.19-.71-5.65-8.36,0,0-54.46,11.8-78.34,66.94L176.88,641l27.48,29.52s3.47,7.38,8.68,11.07H322.88s3.47-3.26,2.17-11.94c0,0,3.19-56.1.29-71.24,0,0,19.25,16.3,42.69,9.69,0,0,81.62-29.62,95.08-63.48C463.11,544.62,455.51,540,455.51,531.49Zm-240.75,79s-8.23-18.75,4.77-33.72C219.53,576.82,220,598,214.76,610.54Z" opacity="0.2"/>
<polyline points="163.59 520.3 173.17 496.98 159.16 483.13 155.36 515.22 163.59 520.3" fill="#f9b499"/>
<path d="M201.54,473c0,16.63-9.77,30.12-21.82,30.12S157.91,489.67,157.91,473c0-1.22.05-2.42.16-3.61h-.16c-3.14,0-5.69-3.47-5.69-7.75s2.55-7.74,5.69-7.74a4.94,4.94,0,0,1,3.84,2c3.92-7.9,10.51-13.07,18-13.07C191.77,442.92,201.54,456.4,201.54,473Z" fill="#f9b499"/>
<path d="M80.09,681.59S100.27,651,93.44,603.12l15.3-27V539.3l24.42-11.4,24.47-12.68s19.08,15.43,30.09,45.89a60.18,60.18,0,0,1,2.79,30,144.77,144.77,0,0,1-12.62,40.51,105.08,105.08,0,0,0-10.63,37.06,82.89,82.89,0,0,0-.24,12.9Z" fill="#0071f2" data-primary="true"/>
<path d="M94.73,519.87c-.91-5.64.4-18.85,22.48-39.51,0,0,7.48-4.88,12.37-21.81,0,0-2.28-44.28,26.37-37.12,0,0,12.05,4.62,19.54-.78,0,0,20.51-11.59,24.42,7A23.64,23.64,0,0,1,192.85,449s-6.94,6-11.5,3.05c0,0-5.34,14.41-19.6,3.95,0,0-2.89-4.11-6.95-.78,0,0-3.67,2.74-2.13,9.5a6.58,6.58,0,0,0,3.47,4.27,9.25,9.25,0,0,1,4.17,3.31c1.84,2.79,4,7.34,2.7,12.31,0,0-1.38,31.15-10.79,39.83,0,0-11.46,9.77-12.11,16.5,0,0-5.43,40.59-23.45,42.54,0,0-6.94.22-11.07,10.64,0,0-5,21.06-30.6,11.51,0,0-19.32-5.43-8.69-32.13A113.79,113.79,0,0,1,78.48,554.6a36,36,0,0,1,7.11-6.38c2.58-1.81,6.82-6.1,8.93-15.58A33.85,33.85,0,0,0,94.73,519.87Z" fill="#2f2e41" data-secondary="true"/>
<path d="M153.15,566.47c-1.26-2.87-2.48-5.76-3.56-8.7-10.42-28.37-28-22.87-28-22.87-5.49,1.47-8.25,6.82-9.62,12.27a35.3,35.3,0,0,0,1.32,21.07,212.36,212.36,0,0,0,51.61,77.21s26.21,24.09,54.21,36.14h36.47s-51.88-33.23-61.06-39.29c-.58-.39-1.17-.76-1.76-1.12-2.3-1.41-10.34-7-15.33-19.5Z" fill="#f9b499"/>
<path d="M648.71,681.59s9.65-27-9.88-100.29c0,0-19.21-57,38.75-73.91,0,0,54.37-13,81.4,28.65,1.63,1,8.14,23.77-10.75,51.12,0,0-13,30.94-4.88,94.43Z" fill="#0071f2" data-primary="true"/>
<path d="M58.37,359.23s44.94-34.18,21.49-162.15c0,0-21.16-88.05,43.22-126.65,28.85-17.29,64.64-17.85,94.67-2.71,25.9,13.06,53.55,38.85,56,89.59.26,5.29.61,10.58,1.13,15.86C278.33,208.18,279.78,356.65,58.37,359.23Z" fill="#d1d3d4"/>
<path d="M329,261.55s-37-1.84-53.28,0c0,0-111.8,6.84-113.76-64.47,0,0-5.36-89.86,129.19-64.47,0,0,69.38,8.28,111.73,75.45C402.83,208.06,369,218.57,329,261.55Z" fill="#bcbec0"/>
<circle cx="246.71" cy="202.72" r="7.05" fill="#fff"/>
<circle cx="277.95" cy="202.72" r="7.05" fill="#fff"/>
<circle cx="308.15" cy="201.77" r="7.05" fill="#fff"/>
<path d="M282.36,331.88S349.62,159.09,530.84,190.4a75.54,75.54,0,0,1,60.88,55.52s18.37,78.41-49.43,93.83c-4.37,1-8.68,2.2-13,3.53C512.17,348.65,460.82,360,380.44,337c-6.52-1.86-13-3.94-19.37-6.14C352.3,327.86,322.92,320,282.36,331.88Z" fill="#d1d3d4"/>
<path d="M727.43,366S565.51,392.89,542.24,261.73c0,0-27.91-107,75.38-126.51,0,0,70-16.09,84.24,87.53A215.07,215.07,0,0,1,703.19,266C701.84,286.25,702.3,331.1,727.43,366Z" fill="#bcbec0"/>
<circle cx="656.52" cy="261.47" r="7.9" fill="#fff"/>
<circle cx="625.22" cy="261.73" r="7.9" fill="#fff"/>
<circle cx="593.99" cy="261.73" r="7.9" fill="#fff"/>
<path d="M398.58,469.3h30.93a0,0,0,0,1,0,0v32.3A15.46,15.46,0,0,1,414,517.06h0a15.46,15.46,0,0,1-15.46-15.46V469.3A0,0,0,0,1,398.58,469.3Z" fill="#f9b499"/>
<path d="M255.59,459.57h28.8a0,0,0,0,1,0,0v34.11a14.4,14.4,0,0,1-14.4,14.4h0a14.4,14.4,0,0,1-14.4-14.4V459.57A0,0,0,0,1,255.59,459.57Z" fill="#f9b499"/>
<ellipse cx="281.75" cy="443.73" rx="29.2" ry="35.65" fill="#f9b499"/>
<path d="M280,398.31c5.92,1.77,19.39,1.63,23.26,1.46a10.07,10.07,0,0,0,2.83-.49,18.59,18.59,0,0,0,7-4.77,6.27,6.27,0,0,1,1.18,2.46,16.27,16.27,0,0,1-8.86,19.16c-9.69,4.34-21.95.52-21.95.52s-.74,20.79-1,27.92a12.15,12.15,0,0,0,1.57,6.58c4.68,7.94,14,1.43,16.49-.54a6.85,6.85,0,0,1,2.14-1.2,7.09,7.09,0,0,1,6.09.89c5.54,4.67-11.61,8.25-11.61,8.25,1.52,3.26,11.61,1,11.61,1,4.23,5,1.74,18.88,1.74,18.88-2.82,13.46-20.19,1.95-20.19,1.95C269.26,469.08,273,450.63,273,450.63c3.69-26.92-8-23.23-8-23.23-10.2.43,0,34.3,0,34.3s-7.81,3.69-12.37,1.52c0,0-25.18-23-8.25-52.32C244.3,410.9,256,391.15,280,398.31Z" fill="#2f2e41" data-secondary="true"/>
<path d="M170.28,504l1.26-3.06s-6.29-3.38-8.34-8.26A15.5,15.5,0,0,0,170.28,504Z" fill="#f7a48b"/>
<path d="M284.39,484.94v-5.55s-13.44.77-19.27-6.35C265.12,473,266.28,481.7,284.39,484.94Z" fill="#f7a48b"/>
<path d="M429.51,490.9v-5.56s-15.24,3.39-21.07-3.73C408.44,481.61,416.92,495.11,429.51,490.9Z" fill="#f7a48b"/>
<ellipse cx="421.66" cy="453.75" rx="28.76" ry="33.48" fill="#f9b499"/>
<path d="M398.58,473.93S366,438.58,382.8,418.17c0,0,9.05-12.82,34.29-10.09,0,0,9.68,2.73,14.73-1.48a30.47,30.47,0,0,1,8.66-4.84,11.13,11.13,0,0,1,13.87,6.79c2.31,6.28,3.8,16.94-9.69,21.82a69.61,69.61,0,0,1-14.92-1.28,12.89,12.89,0,0,0-13.78,6.1,1.71,1.71,0,0,1-.13.23s-2.77,12.21-10.4,11.48a10.41,10.41,0,0,0-4.89.58c-2.41,1-4.88,2.79-2.38,6C398.16,453.52,406.15,463.62,398.58,473.93Z" fill="#2f2e41" data-secondary="true"/>
<path d="M676.1,498.05s-.49-3.79-1.91-5.7c0,0,7.58-1.62,15.55-17.72A29.69,29.69,0,0,1,676.1,498.05Z" fill="#f7a48b"/>
<path d="M700,460.26c0,3.82-2.21,6.92-4.93,6.92a3.86,3.86,0,0,1-2.4-.88c-2.23,15.32-12.1,26.88-23.93,26.88-13.48,0-24.4-15-24.4-33.48s10.92-33.48,24.4-33.48c11.35,0,20.88,10.62,23.61,25a2.65,2.65,0,0,0,2.7,2.11h0C697.82,453.34,700,456.43,700,460.26Z" fill="#f9b499"/>
<path d="M715.51,445.2s.59,27.46-16.36,27.53a3,3,0,0,1-3-3.14,16,16,0,0,1,2.3-6.88,7.07,7.07,0,0,0-1.49-8.8l-.11-.1s-5.79,2.13-11.65-8.61c0,0-4-8.87-11.89-2.61,0,0-11.39,12.7-32.72.66,0,0-13.51-10.1,0-18.73,0,0,8.47-1.95,10.42-6.67,0,0,11.72-27.68,38.58-10.42,0,0,5.38-22.31,21.17-8.63,0,0,1.63,2.28,6.35.33,0,0,20-3.61,12.7,27.09C729.84,426.22,727.72,439.34,715.51,445.2Z" fill="#2f2e41" data-secondary="true"/>
</svg>